<?xml version="1.0" encoding="utf-8"?>
<!-- Generator: Adobe Illustrator 24.0.1, SVG Export Plug-In . SVG Version: 6.00 Build 0)  -->
<svg version="1.1" id="Livello_1" xmlns="http://www.w3.org/2000/svg" xmlns:xlink="http://www.w3.org/1999/xlink" x="0px" y="0px"
	 viewBox="0 0 453.54 85.04" style="enable-background:new 0 0 453.54 85.04;" xml:space="preserve">
<g>
	<path d="M60.51,38.28v-6.49c0-4.66-1.91-7.11-5.58-7.19v-0.92h12.76v0.92c-1.98,0.07-3.02,0.44-4.02,1.43
		c-1.39,1.32-2.05,3.19-2.05,5.76v19.33h-0.83L38.16,28.71v13.46c0,4.66,1.94,7.15,5.62,7.19v0.92H30.98v-0.92
		c1.98-0.07,3.02-0.44,4.02-1.43c1.39-1.32,2.04-3.19,2.04-5.76V27.76l-0.9-0.84c-0.62-0.66-2.25-1.76-2.91-2.05
		c-0.38-0.15-1.18-0.26-1.87-0.26h-0.14v-0.92h14.45L60.51,38.28z"/>
	<path style="fill:#A0916E;" d="M34.38,24.6c0.8,0.44,2.32,1.61,3.43,2.68l22.95,22.63v-7.04L42.28,24.6H34.38z"/>
	<path d="M38.4,49.36c-0.69-0.73-1.11-1.76-1.25-3.12c-0.31,1.1-1.35,2.35-2.5,3.12H38.4z"/>
	<path d="M58.26,24.6c1.21,0.81,2.11,1.87,2.46,2.93c0.24-1.36,0.69-2.31,1.32-2.93H58.26z"/>
	<path d="M101.76,37.29c0,4.37-2.01,8.55-5.3,10.93c-2.74,1.94-6.31,2.9-11.06,2.9c-5.55,0-9.36-1.17-12.65-3.85
		c-3.26-2.68-5.06-6.34-5.06-10.38c0-4.29,2.01-8.29,5.44-10.82c3.12-2.31,6.38-3.26,11.27-3.26
		C94.72,22.8,101.76,28.67,101.76,37.29z"/>
	<path style="fill:#A0916E;" d="M68.73,36.85c0,6.27,4.92,11.96,11.2,12.91c-1.46-1.36-2.15-2.24-3.02-3.74
		c-1.46-2.64-2.29-5.91-2.29-9.17c0-5.1,1.73-9.13,5.51-12.84C73.41,25.15,68.73,30.43,68.73,36.85z"/>
	<path style="fill:#FFFFFF;" d="M79.68,27.94c-1.04,2.6-1.63,5.83-1.63,8.95c0,3.08,0.59,6.42,1.59,9.06
		c1.14,2.97,2.77,4.25,5.37,4.25c2.43,0,4.23-1.5,5.34-4.36c0.87-2.27,1.28-5.02,1.28-8.29c0-3.74-0.52-7.08-1.46-9.5
		c-1.18-2.97-2.88-4.33-5.41-4.33C82.49,23.72,80.79,25.12,79.68,27.94z"/>
	<path style="fill:#A0916E;" d="M92.61,37.47c0,3.38-0.42,5.91-1.32,8.36c-0.73,1.94-1.39,2.93-2.84,4.29
		c5.48-0.81,9.98-6.64,9.98-12.91c0-3.67-1.63-7.67-4.12-10.09c-1.59-1.58-3.09-2.38-5.82-3.15C91.36,26.99,92.61,31.09,92.61,37.47
		z"/>
	<path d="M127,33.07c0.66-1.21,1-2.46,1-3.52c0-2.68-2.11-4.95-4.58-4.95h-0.87v-0.92h13.45v0.92c-2.56,0.22-5.41,3.19-8.01,8.33
		l-9.84,18.59h-0.69l-12.13-23.25c-1.28-2.46-3.09-3.67-5.48-3.67h-0.52v-0.92h20.14v0.92h-1.32c-1.53,0-1.56,0-2.01,0.15
		c-0.66,0.26-1.08,0.77-1.08,1.43c0,0.66,0.35,1.72,0.87,2.75l6.52,12.58L127,33.07z"/>
	<path style="fill:#A0916E;" d="M103.18,24.6c1.28,0.73,2.22,1.94,3.36,4.18l11.27,21.67l2.95-5.58l-8.8-16.94
		c-0.31-0.59-0.45-1.1-0.45-1.65c0-0.62,0.14-1.03,0.59-1.69H103.18z"/>
	<path style="fill:#A0916E;" d="M126.34,24.6c1.46,1.03,2.6,3.12,2.63,4.84c1.11-2.24,1.63-3.23,2.67-4.84H126.34z"/>
	<path d="M132.68,42.9c-0.17,0.55-0.24,0.88-0.24,1.43c0,1.91,1.08,3.81,2.53,4.47c0.69,0.33,1.32,0.44,2.91,0.55v0.92h-13.73v-0.92
		c2.57-0.11,4.89-2.27,7.35-6.82l10.43-19.58h0.9l11.79,22.23c1.77,3.34,2.91,4.18,5.58,4.18h0.52v0.92h-19.83v-0.92h1.94
		c1.42,0,2.39-0.73,2.39-1.83c0-0.37-0.17-0.92-0.42-1.39l-1.66-3.23H132.68z"/>
	<path d="M131.26,49.36c-0.49-0.81-0.76-1.65-0.76-2.46c0-0.29,0.03-0.7,0.1-1.17c-1.11,1.65-2.46,3.04-3.64,3.63H131.26z"/>
	<polygon style="fill:#FFFFFF;" points="137.74,32.71 132.96,41.99 142.59,41.99 	"/>
	<path style="fill:#A0916E;" d="M141.14,26.4l-2.91,5.32l7.52,14.3c0.28,0.59,0.41,1.03,0.41,1.58c0,0.7-0.21,1.17-0.73,1.76h7.94
		L141.14,26.4z"/>
	<path d="M252.08,34.6l-0.63,0.11c-1.06-2.39-2.05-4.25-3.14-5.79c-2.29-3.25-5.43-5.08-8.64-5.08c-3.95,0-6.24,4.85-6.24,13.21
		c0,3.7,0.46,6.64,1.45,9.14c1.06,2.72,2.72,4.03,5.15,4.03c4.9,0,9.35-3.36,12-9l0.71,0.37c-0.92,2.17-2.5,4.48-4.23,6.12
		c-2.5,2.39-6.07,3.69-10.02,3.69c-8.78,0-15.35-6.23-15.35-14.56c0-4.81,2.29-9.22,6.1-11.79c2.22-1.49,5.54-2.43,8.71-2.43
		c2.43,0,4.44,0.52,6.67,1.72c1.23,0.67,1.62,0.82,2.47,0.82c1.41,0,2.54-0.56,3.85-1.87h0.63L252.08,34.6z"/>
	<path style="fill:#A0916E;" d="M224.14,36.87c0,6.38,4.16,11.72,10.27,13.17c-3.07-3.17-4.66-7.5-4.66-12.69
		c0-4.03,1.02-7.91,2.75-10.56c0.74-1.12,1.41-1.87,2.86-3.14C228.8,24.45,224.14,29.89,224.14,36.87z"/>
	<path d="M249.22,25.42c-0.81,0.45-1.23,0.56-2.43,0.52c0.92,0.78,1.94,1.98,2.65,3.25L249.22,25.42z"/>
	<path d="M279.73,35.83v-6.87c0-2.28-0.21-3.17-0.92-3.77c-0.67-0.56-1.45-0.75-3.46-0.75h-0.21v-0.93h19.23v0.93h-1.23
		c-2.01,0-2.79,0.19-3.46,0.75c-0.71,0.6-0.92,1.49-0.92,3.77v16.16c0,2.31,0.21,3.17,0.92,3.81c0.67,0.56,1.45,0.71,3.46,0.71h1.23
		v0.93h-19.23v-0.93h0.21c2.01,0,2.79-0.15,3.46-0.71c0.71-0.6,0.92-1.49,0.92-3.81V36.8H268.3v8.32c0,2.31,0.21,3.17,0.92,3.81
		c0.67,0.56,1.41,0.71,3.42,0.71h0.21v0.93h-19.19v-0.93h1.24c2.01,0,2.79-0.15,3.46-0.71c0.71-0.6,0.92-1.49,0.92-3.81V28.96
		c0-2.28-0.21-3.17-0.92-3.77c-0.67-0.56-1.45-0.75-3.46-0.75h-1.24v-0.93h19.23v0.93h-0.21c-2.01,0-2.79,0.19-3.46,0.75
		c-0.71,0.6-0.92,1.49-0.92,3.77v6.87H279.73z"/>
	<path style="fill:#A0916E;" d="M258.95,24.45c1.02,0.9,1.34,1.83,1.34,3.96v17.28c0,2.13-0.32,3.06-1.34,3.96h7.2
		c-0.71-0.9-0.78-1.27-0.78-3.25v-18.7c0-1.98,0.07-2.35,0.78-3.25H258.95z"/>
	<path style="fill:#A0916E;" d="M279.42,24.45c1.02,0.9,1.34,1.83,1.34,3.96v17.28c0,2.13-0.32,3.06-1.34,3.96h7.2
		c-0.71-0.9-0.78-1.27-0.78-3.25v-18.7c0-1.98,0.07-2.35,0.78-3.25H279.42z"/>
	<path d="M302.84,43.07c-0.18,0.56-0.25,0.9-0.25,1.46c0,1.94,1.09,3.88,2.58,4.55c0.71,0.34,1.34,0.45,2.96,0.56v0.93h-13.97v-0.93
		c2.61-0.11,4.97-2.31,7.48-6.94l10.62-19.93h0.92l11.99,22.62c1.8,3.4,2.96,4.25,5.68,4.25h0.53v0.93H311.2v-0.93h1.98
		c1.45,0,2.43-0.75,2.43-1.87c0-0.37-0.18-0.93-0.42-1.42l-1.69-3.28H302.84z"/>
	<path style="fill:#A0916E;" d="M301.39,49.64c-0.49-0.82-0.78-1.68-0.78-2.5c0-0.3,0.04-0.71,0.11-1.2c-1.13,1.68-2.5,3.1-3.7,3.7
		H301.39z"/>
	<polygon style="fill:#FFFFFF;" points="307.99,32.69 303.12,42.14 312.93,42.14 	"/>
	<path style="fill:#A0916E;" d="M311.45,26.27l-2.96,5.41l7.66,14.56c0.28,0.6,0.42,1.04,0.42,1.61c0,0.71-0.21,1.19-0.74,1.79h8.08
		L311.45,26.27z"/>
	<path d="M361.54,46.47c1.2,2.28,2.65,3.17,5.12,3.17v0.93h-12.17l-6.67-12.8h-2.05v7.35c0,2.28,0.21,3.17,0.92,3.77
		c0.67,0.6,1.41,0.75,3.42,0.75h0.21v0.93h-19.19v-0.93h1.23c2.01,0,2.79-0.15,3.46-0.75c0.71-0.6,0.92-1.49,0.92-3.77V28.96
		c0-2.28-0.21-3.17-0.92-3.77c-0.67-0.56-1.45-0.75-3.46-0.75h-1.23v-0.93h21.27c5.01,0,5.71,0.07,7.73,0.9
		c2.36,0.97,3.91,3.36,3.91,6.16c0,3.84-2.4,6.34-6.91,7.13L361.54,46.47z"/>
	<path style="fill:#A0916E;" d="M336.42,24.45c1.02,0.9,1.34,1.83,1.34,3.96v17.28c0,2.13-0.32,3.06-1.34,3.96h7.2
		c-0.71-0.9-0.78-1.27-0.78-3.25V24.45H336.42z"/>
	<path style="fill:#FFFFFF;" d="M348.13,36.84c1.83,0,3.42-0.49,4.34-1.27c1.06-0.93,1.73-2.8,1.73-4.85c0-2.16-0.74-4.03-1.98-5.08
		c-1.09-0.86-2.26-1.19-4.41-1.19h-2.05v12.39H348.13z"/>
	<path style="fill:#A0916E;" d="M353.88,37.84c1.55-0.67,2.26-0.97,3.25-1.53c2.36-1.31,3.56-3.17,3.56-5.6
		c0-2.84-1.8-5.22-4.48-5.97c-0.81-0.22-1.38-0.26-4.16-0.3c2.22,1.53,3.21,3.47,3.21,6.23c0,2.8-1.02,5.04-2.75,6.08
		c-0.88,0.52-1.91,0.82-3.6,1.01l6.14,11.87h4.76L353.88,37.84z"/>
	<path d="M399.08,35.46h-0.88c-0.71-2.54-2.58-5.56-4.87-7.99c-2.26-2.35-3.42-3.02-5.29-3.02h-0.67v20.68
		c0,2.31,0.21,3.17,0.92,3.81c0.67,0.56,1.45,0.71,3.46,0.71h1.23v0.93h-20.21v-0.93h1.23c1.98,0,2.75-0.15,3.42-0.71
		c0.71-0.63,0.92-1.49,0.92-3.81V24.45h-0.6c-2.05,0-3.46,0.86-5.71,3.43c-1.94,2.28-3.18,4.37-4.38,7.58h-0.88V23.51h32.31V35.46z"
		/>
	<path style="fill:#A0916E;" d="M367.64,29.56c0.95-1.83,2.75-4.11,3.99-5.11h-3.99V29.56z"/>
	<path style="fill:#A0916E;" d="M385.21,49.64c-0.71-0.93-0.78-1.27-0.78-3.25V24.45h-5.08v21.24c0,2.13-0.32,3.06-1.34,3.96H385.21
		z"/>
	<path style="fill:#A0916E;" d="M391.21,24.45c1.73,1.16,3.95,3.51,5.15,5.41v-5.41H391.21z"/>
	<path d="M402.36,43.07c-0.18,0.56-0.25,0.9-0.25,1.46c0,1.94,1.09,3.88,2.58,4.55c0.71,0.34,1.34,0.45,2.96,0.56v0.93h-13.97v-0.93
		c2.61-0.11,4.97-2.31,7.48-6.94l10.62-19.93h0.92l11.99,22.62c1.8,3.4,2.96,4.25,5.68,4.25h0.53v0.93h-20.18v-0.93h1.98
		c1.45,0,2.43-0.75,2.43-1.87c0-0.37-0.18-0.93-0.42-1.42l-1.69-3.28H402.36z"/>
	<path style="fill:#A0916E;" d="M400.91,49.64c-0.49-0.82-0.78-1.68-0.78-2.5c0-0.3,0.04-0.71,0.11-1.2c-1.13,1.68-2.5,3.1-3.71,3.7
		H400.91z"/>
	<polygon style="fill:#FFFFFF;" points="407.51,32.69 402.64,42.14 412.45,42.14 	"/>
	<path style="fill:#A0916E;" d="M410.96,26.27L408,31.69l7.66,14.56c0.28,0.6,0.42,1.04,0.42,1.61c0,0.71-0.21,1.19-0.74,1.79h8.08
		L410.96,26.27z"/>
	<g>
		<path style="fill:#A0916E;" d="M136.05,62.89v2.41l0.01,1.39c0,0.87,0.01,1.5,0.03,1.9c0.95,0.07,1.97,0.11,3.05,0.11
			c0.73,0,1.34-0.03,1.83-0.1c0.32-0.04,0.66-0.12,1.01-0.25c0.16-0.57,0.33-1.29,0.5-2.15h0.66c-0.18,1.42-0.27,2.37-0.27,2.84
			l0.02,0.44c-0.75,0.06-1.48,0.09-2.21,0.09l-1.53-0.03c-1.69-0.04-2.93-0.07-3.73-0.07c-0.76,0-1.77,0.02-3.03,0.06v-0.62h0.3
			c0.57,0,0.93-0.05,1.08-0.17c0.15-0.11,0.25-0.37,0.29-0.78c0.05-0.41,0.07-1.31,0.07-2.71v-5.36c0-0.88-0.02-1.6-0.06-2.16
			c-0.04-0.56-0.09-0.89-0.14-1c-0.05-0.11-0.12-0.19-0.21-0.25c-0.09-0.06-0.37-0.11-0.84-0.16l-0.75-0.08v-0.62h1.05l1.03,0.03
			c0.58,0.02,1.02,0.03,1.32,0.03l3.74-0.05l1.77-0.01c0.6-0.01,1.22,0.01,1.83,0.06c-0.25,0.77-0.38,1.77-0.41,3h-0.66
			c0-0.72-0.04-1.31-0.11-1.79c-0.77-0.29-1.71-0.43-2.83-0.43c-0.89,0-1.83,0.04-2.8,0.12c0.01,0.62,0,1.23-0.02,1.85l-0.02,1.51
			v1.99c0.65,0.04,1.22,0.06,1.71,0.06c1.55,0,2.43-0.05,2.64-0.16c0.21-0.11,0.31-0.45,0.31-1.01v-0.64h0.66
			c-0.05,0.99-0.07,1.78-0.07,2.37c0,0.62,0.02,1.35,0.07,2.2h-0.66V64.2c0-0.63-0.12-1.01-0.37-1.16
			c-0.24-0.14-1.11-0.21-2.59-0.21C137.21,62.83,136.64,62.85,136.05,62.89z"/>
		<path style="fill:#A0916E;" d="M152.96,68.52c0.1-1,0.16-2.76,0.16-5.27v-2.82c0-1.15-0.04-2.15-0.12-2.98
			c-0.05-0.49-0.11-0.77-0.18-0.85c-0.08-0.08-0.34-0.15-0.8-0.21l-0.78-0.12v-0.62c1.07,0.04,1.79,0.06,2.17,0.06l2.62-0.02
			l2.14-0.04c0.86-0.01,1.74,0.07,2.64,0.25c0.9,0.18,1.72,0.55,2.46,1.09c0.73,0.55,1.29,1.24,1.68,2.06
			c0.38,0.83,0.58,1.78,0.58,2.87c0,2.19-0.74,4.01-2.22,5.44c-1.48,1.44-3.41,2.15-5.8,2.15l-1.2-0.03
			c-1.18-0.04-1.92-0.07-2.23-0.07c-0.53,0-1.2,0.04-2.01,0.12v-0.5L152.96,68.52z M155.08,68.45c0.88,0.13,1.65,0.19,2.32,0.19
			c1.82,0,3.23-0.47,4.24-1.4c1.21-1.13,1.82-2.78,1.82-4.95c0-1.89-0.5-3.33-1.52-4.32c-1.01-0.99-2.49-1.49-4.44-1.49
			c-0.68,0-1.49,0.07-2.43,0.2c-0.08,0.62-0.12,1.33-0.12,2.12v6.35C154.96,66.33,155,67.43,155.08,68.45z"/>
		<path style="fill:#A0916E;" d="M173.85,68.93h0.61c0.6,0,0.96-0.15,1.08-0.44c0.12-0.29,0.18-1.69,0.18-4.2v-3.31
			c0-2.6-0.05-4.04-0.16-4.3c-0.1-0.27-0.42-0.4-0.93-0.4h-0.79v-0.62c1.08,0.04,2.15,0.06,3.2,0.06c0.88,0,1.68-0.02,2.39-0.06
			v0.62h-0.75c-0.46,0-0.75,0.06-0.87,0.17c-0.12,0.11-0.19,0.39-0.21,0.84c-0.03,0.7-0.05,1.94-0.05,3.72v3.37
			c0,2.53,0.06,3.92,0.17,4.18c0.11,0.26,0.47,0.38,1.06,0.38h0.64v0.62c-0.8-0.04-1.67-0.06-2.62-0.06c-1.1,0-2.09,0.02-2.98,0.06
			V68.93z"/>
		<path style="fill:#A0916E;" d="M194.14,56.52c-0.07,0.98-0.11,2.01-0.11,3.09v5.57c0,2.07,0.05,3.21,0.16,3.43
			c0.1,0.21,0.47,0.32,1.11,0.32h0.73v0.62c-1.15-0.04-2.13-0.06-2.93-0.06c-0.81,0-1.78,0.02-2.91,0.06v-0.62h0.82
			c0.43,0,0.71-0.06,0.84-0.17c0.13-0.11,0.21-0.34,0.24-0.67c0.06-0.76,0.1-1.75,0.1-2.95v-5.58c0-1.1-0.02-2.11-0.07-3.03h-0.99
			c-1.6,0-2.48,0.04-2.64,0.11c-0.16,0.07-0.27,0.36-0.32,0.87l-0.14,1.3h-0.62l0.02-1.15c0-0.46-0.04-1.13-0.11-2
			c3.51,0.04,5.58,0.06,6.2,0.06l5.4-0.06c-0.13,1.09-0.2,2.14-0.22,3.16h-0.62l-0.1-1.27c-0.04-0.44-0.09-0.7-0.16-0.78
			c-0.07-0.08-0.23-0.13-0.48-0.15c-0.71-0.05-1.52-0.08-2.43-0.08H194.14z"/>
		<path style="fill:#A0916E;" d="M206.67,62.59c0-2.14,0.69-3.87,2.07-5.17c1.38-1.31,3.21-1.96,5.51-1.96
			c2.25,0,4.01,0.61,5.29,1.82c1.28,1.21,1.92,2.83,1.92,4.84c0,2.17-0.74,3.98-2.22,5.44c-1.48,1.46-3.35,2.19-5.61,2.19
			c-1.41,0-2.62-0.29-3.65-0.86c-1.02-0.57-1.83-1.41-2.42-2.51C206.96,65.27,206.67,64.01,206.67,62.59z M208.67,61.79
			c0,1.47,0.25,2.75,0.75,3.84c0.5,1.09,1.18,1.91,2.02,2.45c0.84,0.54,1.81,0.81,2.89,0.81c1,0,1.88-0.23,2.64-0.69
			c0.75-0.46,1.34-1.15,1.78-2.07c0.43-0.92,0.65-2.03,0.65-3.35c0-1.38-0.24-2.56-0.71-3.54c-0.48-0.98-1.13-1.71-1.96-2.21
			c-0.83-0.49-1.81-0.74-2.95-0.74c-1.04,0-1.93,0.22-2.68,0.65c-0.75,0.44-1.34,1.07-1.77,1.92
			C208.88,59.71,208.67,60.69,208.67,61.79z"/>
		<path style="fill:#A0916E;" d="M236.63,62.5c0.64,0.92,1.42,1.98,2.37,3.2l1.87,2.43c0.33,0.42,0.55,0.65,0.66,0.71
			c0.11,0.06,0.22,0.09,0.34,0.09h0.25v0.62c-0.54-0.04-1.01-0.06-1.41-0.06c-0.37,0-0.76,0.02-1.17,0.06l-3.45-4.67
			c-0.64-0.86-1.33-1.7-2.07-2.52l0.1-0.33c0.38,0.03,0.66,0.05,0.84,0.05c1.08,0,1.93-0.28,2.55-0.84
			c0.61-0.56,0.92-1.31,0.92-2.25c0-0.84-0.26-1.5-0.78-1.97c-0.52-0.47-1.27-0.71-2.26-0.71c-0.68,0-1.37,0.12-2.06,0.38
			c-0.08,1.04-0.12,2.14-0.12,3.32v4.72c0,2.3,0.06,3.58,0.17,3.83c0.11,0.25,0.47,0.38,1.07,0.38h0.76v0.62
			c-1.08-0.04-1.97-0.06-2.68-0.06c-0.56,0-1.57,0.02-3.04,0.06v-0.62h0.73c0.56,0,0.89-0.12,0.99-0.37
			c0.1-0.24,0.15-1.53,0.15-3.85v-4.69c0-2.02-0.06-3.15-0.18-3.39c-0.12-0.24-0.51-0.36-1.17-0.36h-0.53v-0.62
			c1.21,0.04,2.14,0.06,2.78,0.06c0.43,0,1.05-0.02,1.86-0.05c0.94-0.03,1.61-0.05,2.02-0.05c1.12,0,1.98,0.12,2.56,0.36
			c0.58,0.24,1.03,0.58,1.33,1.03s0.45,0.99,0.45,1.61c0,0.92-0.33,1.73-0.99,2.44C238.84,61.76,237.88,62.24,236.63,62.5z"/>
		<path style="fill:#A0916E;" d="M249.82,68.93h0.61c0.6,0,0.96-0.15,1.08-0.44c0.12-0.29,0.18-1.69,0.18-4.2v-3.31
			c0-2.6-0.05-4.04-0.16-4.3c-0.1-0.27-0.41-0.4-0.93-0.4h-0.79v-0.62c1.08,0.04,2.15,0.06,3.2,0.06c0.88,0,1.68-0.02,2.39-0.06
			v0.62h-0.75c-0.46,0-0.75,0.06-0.87,0.17c-0.12,0.11-0.19,0.39-0.21,0.84c-0.03,0.7-0.05,1.94-0.05,3.72v3.37
			c0,2.53,0.05,3.92,0.17,4.18c0.11,0.26,0.46,0.38,1.06,0.38h0.64v0.62c-0.8-0.04-1.67-0.06-2.62-0.06c-1.1,0-2.09,0.02-2.98,0.06
			V68.93z"/>
	</g>
	<g>
		<g>
			<path style="fill:#FFFFFF;" d="M160.76,33.61v17.7c0,0,15.65,3.82,26.92,0.56c0,0,0.02,1.5,2.98,1.5c2.96,0,2.98-1.5,2.98-1.5
				c11.27,3.26,26.91-0.56,26.91-0.56v-17.7H160.76z"/>
		</g>
		<g>
			<path style="fill:none;stroke:#FFFFFF;stroke-width:2.2677;" d="M160.76,33.61v17.7c0,0,15.65,3.82,26.92,0.56
				c0,0,0.02,1.5,2.98,1.5c2.96,0,2.98-1.5,2.98-1.5c11.27,3.26,26.91-0.56,26.91-0.56v-17.7H160.76z"/>
		</g>
	</g>
	<g>
		<path style="fill:#A0916E;" d="M193.06,22.14c0,0,0.92-0.96,2.31-1.3c0.75-0.19,1.56-0.36,2.89-0.15c1.55,0.25,3.6,0.86,6.06,1.94
			c0,0,3.3,1.58,6.63,1.45c1.8-0.07,3.41-0.63,5.12-1.81c0,0,0.08,0.84,0.45,1.18c0.36,0.33,1.17,0.59,1.17,0.59l0.7,0.04
			l-0.01,25.51c0,0-13.25,3.24-22.8,0.47c0,0-0.02,1.27-2.52,1.27L193.06,22.14L193.06,22.14z"/>
		<path style="fill:#FFFFFF;" d="M193.93,22.42l0.03,23.11c0,0,1.02-0.51,1.94-0.65c0.49-0.16,0.9-0.05,1.29-0.08
			c0.95-0.09,1.6,0.16,2.28,0.23c1.17,0.27,1.69,0.25,3.5,0.91c1.52,0.62,2.91,1.03,4.04,1.38c0.69,0.21,1.99,0.73,4.27,0.68
			c2.63,0.04,4.23-0.97,4.23-0.97V23.42c-1.47,0.81-2.8,1.41-5.91,1.24c-2.83-0.09-6.66-1.97-6.66-1.97
			c-1.36-0.5-1.97-0.7-2.74-0.91c-0.89-0.24-1.98-0.62-3.01-0.58C194.93,21.31,193.93,22.42,193.93,22.42L193.93,22.42z"/>
		<path style="fill-rule:evenodd;clip-rule:evenodd;fill:#A0916E;" d="M197.73,20.97c0,0,3.71,0.8,3.42,5.25
			c0,0,0.15,2.72-2.54,4.63c0,0-5.55,2.28,0.16,8.11c0,0,1.07,1.02,1.55,3.58c0,0,0.48,1.79,0.51,2.01
			c-0.06-0.07-0.84-1.41-1.24-1.84c0,0-0.08,0.82-0.48,2.01c0,0-0.34-3.24-1.24-4.62c0,0-4.99-6.78,0.39-10.6c0,0,2.89-2.05,2.4-5
			c0,0-0.43-2.96-4.97-3.54H197.73L197.73,20.97z"/>
		<path style="fill:#A0916E;" d="M216.07,47.52c0,0.05-0.89,0.94-3.1,1.33c-3.53,0.44-6.84-0.63-8.12-1.12
			c-2.62-0.99-2.83-1.14-4.59-1.6c-4.29-1.31-6.64,0.61-7.12,1.06c2,0.06,1.9,1.99,1.9,1.99c2.61-1.41,11.02,0.14,11.02,0.14
			c9.52,1.02,11.27-0.98,11.27-0.98L216.07,47.52L216.07,47.52z"/>
		<path style="fill:#A0916E;" d="M216.07,23.78v22.89l1.27,0.69l-0.05-22.88c0,0-0.22,0.04-0.61-0.14
			C216.34,24.17,216.07,23.78,216.07,23.78L216.07,23.78z"/>
		<path style="fill-rule:evenodd;clip-rule:evenodd;fill:#A0916E;" d="M211.99,27.75c-0.03,0.1-0.6,0.67-2.01,0.92
			c-2.26,0.28-4.38-0.4-5.19-0.71c-1.67-0.64-1.82-0.73-2.94-1.03c-2.75-0.84-4.27,0.39-4.57,0.68v-0.89
			c0.31-0.29,1.82-1.52,4.57-0.68c1.12,0.3,1.27,0.39,2.94,1.02c0.81,0.31,2.93,0.99,5.19,0.71c1.41-0.25,1.98-0.82,1.98-0.82
			L211.99,27.75L211.99,27.75z"/>
		<path style="fill-rule:evenodd;clip-rule:evenodd;fill:#A0916E;" d="M211.99,31.91c-0.03,0.1-0.6,0.67-2.01,0.92
			c-2.26,0.28-4.38-0.4-5.19-0.71c-1.67-0.64-1.82-0.73-2.94-1.02c-2.75-0.84-4.27,0.39-4.57,0.68v-0.89
			c0.31-0.29,1.82-1.52,4.57-0.68c1.12,0.29,1.27,0.38,2.94,1.02c0.81,0.31,2.93,0.99,5.19,0.71c1.41-0.25,1.98-0.82,1.98-0.82
			L211.99,31.91L211.99,31.91z"/>
		<path style="fill-rule:evenodd;clip-rule:evenodd;fill:#A0916E;" d="M211.99,36.06c-0.03,0.1-0.6,0.67-2.01,0.92
			c-2.26,0.28-4.38-0.4-5.19-0.71c-1.67-0.64-1.82-0.73-2.94-1.02c-2.75-0.84-4.27,0.39-4.57,0.68v-0.89
			c0.31-0.29,1.82-1.52,4.57-0.68c1.12,0.29,1.27,0.39,2.94,1.02c0.81,0.31,2.93,0.99,5.19,0.71c1.41-0.25,1.98-0.82,1.98-0.82
			L211.99,36.06L211.99,36.06z"/>
		<path style="fill-rule:evenodd;clip-rule:evenodd;fill:#A0916E;" d="M211.99,40.21c-0.03,0.1-0.6,0.67-2.01,0.92
			c-2.26,0.28-4.38-0.4-5.19-0.71c-1.67-0.64-1.82-0.73-2.94-1.02c-2.75-0.84-4.27,0.39-4.57,0.68v-0.89
			c0.31-0.29,1.82-1.52,4.57-0.68c1.12,0.29,1.27,0.38,2.94,1.02c0.81,0.31,2.93,0.99,5.19,0.71c1.41-0.25,1.98-0.82,1.98-0.82
			L211.99,40.21L211.99,40.21z"/>
		<path style="fill:#A0916E;" d="M193.06,22.14c0,0-0.92-0.96-2.31-1.3c-0.75-0.19-1.57-0.36-2.89-0.15
			c-1.54,0.25-3.6,0.86-6.06,1.94c0,0-3.29,1.58-6.63,1.45c-1.8-0.07-3.41-0.63-5.12-1.81c0,0-0.08,0.84-0.45,1.18
			c-0.36,0.33-1.16,0.57-1.16,0.57l-0.69,0.01l-0.01,25.55c0,0,13.25,3.24,22.8,0.47c0,0,0.01,1.27,2.52,1.27L193.06,22.14
			L193.06,22.14z"/>
		<path style="fill:#FFFFFF;" d="M192.19,22.42l-0.04,23.11c0,0-1.01-0.51-1.94-0.65c-0.49-0.16-0.9-0.05-1.29-0.08
			c-0.95-0.09-1.6,0.16-2.28,0.23c-1.17,0.27-1.69,0.25-3.5,0.91c-1.52,0.62-2.91,1.03-4.04,1.38c-0.69,0.21-1.99,0.73-4.27,0.68
			c-2.63,0.04-4.23-0.97-4.23-0.97V23.42c1.47,0.81,2.8,1.41,5.9,1.24c2.83-0.09,6.66-1.97,6.66-1.97c1.36-0.5,1.97-0.7,2.74-0.91
			c0.89-0.24,1.97-0.62,3.01-0.58C191.2,21.31,192.19,22.42,192.19,22.42L192.19,22.42z"/>
		<path style="fill:#A0916E;" d="M170.05,47.52c0,0.05,0.89,0.94,3.1,1.33c3.53,0.44,6.84-0.63,8.12-1.12
			c2.62-0.99,2.83-1.14,4.59-1.6c4.29-1.31,6.64,0.61,7.12,1.06c-2.01,0.06-1.9,1.99-1.9,1.99c-2.62-1.41-11.02,0.14-11.02,0.14
			c-9.52,1.02-11.27-0.98-11.27-0.98L170.05,47.52L170.05,47.52z"/>
		<path style="fill:#A0916E;" d="M170.05,23.78v22.89l-1.27,0.69l0.05-22.88c0,0,0.22,0.04,0.61-0.14
			C169.78,24.17,170.05,23.78,170.05,23.78L170.05,23.78z"/>
		<path style="fill-rule:evenodd;clip-rule:evenodd;fill:#A0916E;" d="M174.14,27.75c0.03,0.1,0.6,0.67,2.01,0.92
			c2.26,0.28,4.38-0.4,5.19-0.71c1.67-0.64,1.81-0.73,2.94-1.03c2.75-0.84,4.27,0.39,4.57,0.68v-0.89c-0.3-0.29-1.82-1.52-4.57-0.68
			c-1.13,0.3-1.26,0.39-2.94,1.02c-0.82,0.31-2.94,0.99-5.19,0.71c-1.41-0.25-1.98-0.82-1.98-0.82L174.14,27.75L174.14,27.75z"/>
		<path style="fill-rule:evenodd;clip-rule:evenodd;fill:#A0916E;" d="M174.14,31.91c0.03,0.1,0.6,0.67,2.01,0.92
			c2.26,0.28,4.38-0.4,5.19-0.71c1.67-0.64,1.81-0.73,2.94-1.02c2.75-0.84,4.27,0.39,4.57,0.68v-0.89c-0.3-0.29-1.82-1.52-4.57-0.68
			c-1.13,0.29-1.26,0.38-2.94,1.02c-0.82,0.31-2.94,0.99-5.19,0.71c-1.41-0.25-1.98-0.82-1.98-0.82L174.14,31.91L174.14,31.91z"/>
		<path style="fill-rule:evenodd;clip-rule:evenodd;fill:#A0916E;" d="M174.14,36.06c0.03,0.1,0.6,0.67,2.01,0.92
			c2.26,0.28,4.38-0.4,5.19-0.71c1.67-0.64,1.81-0.73,2.94-1.02c2.75-0.84,4.27,0.39,4.57,0.68v-0.89c-0.3-0.29-1.82-1.52-4.57-0.68
			c-1.13,0.29-1.26,0.39-2.94,1.02c-0.82,0.31-2.94,0.99-5.19,0.71c-1.41-0.25-1.98-0.82-1.98-0.82L174.14,36.06L174.14,36.06z"/>
		<path style="fill-rule:evenodd;clip-rule:evenodd;fill:#A0916E;" d="M174.14,40.21c0.03,0.1,0.6,0.67,2.01,0.92
			c2.26,0.28,4.38-0.4,5.19-0.71c1.67-0.64,1.81-0.73,2.94-1.02c2.75-0.84,4.27,0.39,4.57,0.68v-0.89c-0.3-0.29-1.82-1.52-4.57-0.68
			c-1.13,0.29-1.26,0.38-2.94,1.02c-0.82,0.31-2.94,0.99-5.19,0.71c-1.41-0.25-1.98-0.82-1.98-0.82L174.14,40.21L174.14,40.21z"/>
	</g>
</g>
<g>
</g>
<g>
</g>
<g>
</g>
<g>
</g>
<g>
</g>
<g>
</g>
<g>
</g>
<g>
</g>
<g>
</g>
<g>
</g>
<g>
</g>
<g>
</g>
<g>
</g>
</svg>
